<?xml version="1.0" encoding="utf-8"?>
<!-- Generator: Adobe Illustrator 25.0.0, SVG Export Plug-In . SVG Version: 6.00 Build 0)  -->
<svg version="1.1" id="Capa_1" xmlns="http://www.w3.org/2000/svg" xmlns:xlink="http://www.w3.org/1999/xlink" x="0px" y="0px"
	 viewBox="0 0 680.3 170.1" style="enable-background:new 0 0 680.3 170.1;" xml:space="preserve">
<style type="text/css">
	.st0{fill:#FF9600;}
	.st1{fill:none;stroke:#FF9600;stroke-width:7;stroke-miterlimit:10;}
</style>
<g>
	<path class="st0" d="M237.8,53.7h-37.2l2.1,10.1l-42.5,57.3h15.4l9.1-12.3l28.9,0.4l3.8,12h39.9l-15.4-64.3
		C241.3,55,239.6,53.7,237.8,53.7z M189.5,103.1l16.9-24.1l5.3,24.1H189.5z"/>
	<path class="st0" d="M262.6,121.1L274,81.4c0.2-0.9,0.1-1.8-0.4-2.5l-3.7-5.4c-0.6-0.9,0-2,1.1-2h102.9c3.9,0,10.4,3,10.4,9.5
		l-8.6,31.2c-0.3,0.9,0.4,1.8,1.4,1.8h6l-8.4,7H342L353.2,82c1.5-5.9-7.1-7.7-8.9,0l-10.6,39.1h-31.7l11-38.7c2-7.2-6.7-7.5-8.7,0
		l-10.1,38.7H262.6z"/>
	<path class="st0" d="M659.5,79.5c-1.3-5.1-4.2-6.9-8.5-8h-65.3c-0.7,0-1.1,0.9-0.6,1.4l4.2,4.6h37.2c6.8,0,2.6,7,0,7h-36.8
		c-13.9,2.8-17.4,22.6-17.3,27.2c0.1,6.1,8.5,9.3,8.5,9.3h68.4l8.9-7.4h-5.9c-0.7,0-1.2-0.7-0.9-1.4
		C653.5,106.8,661.4,86.8,659.5,79.5z M619.4,116h-15.1l6-25.3h15.4L619.4,116z"/>
	<path class="st0" d="M476.4,79.7c-1.3-5.1-4.2-6.9-8.5-8h-64.4c-1.1,0-1.7,1.3-0.9,2.1l3.6,4h37.2c6.8,0,2.6,7,0,7h-36.8
		c-13.9,2.8-17.4,22.6-17.3,27.2c0.1,6.1,8.5,9.3,8.5,9.3h68.4l8.9-7.4h-5.5c-0.9,0-1.5-0.9-1.2-1.7
		C470.8,106.3,478.3,86.9,476.4,79.7z M436.4,116.2h-15.1l6-25.3h15.4L436.4,116.2z"/>
	<path class="st0" d="M560.5,71.5h-71.2c-0.9,0-1.4,1.1-0.8,1.8l4.1,4.4c0.6,0.7,0.9,1.7,0.6,2.6l-15.1,53h31.1l2-11.6l33.7-0.1
		c6.6,0,12.8-3.1,16.8-8.4l0.1-0.1c3.1-4,8.6-25,8.5-32.3C570.4,76.7,566.5,72.4,560.5,71.5z M530.7,115.8h-17.6l9.9-38.6h17.3
		L530.7,115.8z"/>
	<polygon class="st0" points="606.3,61.5 634.3,55.7 639.3,65.3 608.3,65.3 	"/>
	<circle class="st1" cx="86.1" cy="88.5" r="62.2"/>
	<polygon class="st0" points="39.6,103.6 58.4,71.4 70,71.4 51.4,103.6 	"/>
	<polygon class="st0" points="54,103.6 72.7,71.4 84.3,71.4 66,103.6 	"/>
	<polygon class="st0" points="68.5,103.6 87.3,71.4 98.9,71.4 80.3,103.6 	"/>
	<path class="st0" d="M84.8,103.6l18.4-32.2h8.8c0.9,0,1.7,0.5,2.1,1.2l16.2,29.1c0.5,0.8-0.1,1.8-1.1,1.8h-29.1l4.9-8
		c0.4-0.7,1.2-1.2,2.1-1.2h6.4l-5-9.9c-0.3-0.7-1.3-0.7-1.7,0l-10.6,19.1H84.8z"/>
</g>
</svg>
