<?xml version="1.0" encoding="utf-8"?>
<!-- Generator: Adobe Illustrator 25.0.0, SVG Export Plug-In . SVG Version: 6.00 Build 0)  -->
<svg version="1.1" id="Capa_1" xmlns="http://www.w3.org/2000/svg" xmlns:xlink="http://www.w3.org/1999/xlink" x="0px" y="0px"
	 viewBox="0 0 680.3 170.1" style="enable-background:new 0 0 680.3 170.1;" xml:space="preserve">
<style type="text/css">
	.st0{display:none;}
	.st1{display:inline;fill:#FF9600;}
	.st2{display:inline;fill:none;stroke:#FF9600;stroke-width:7;stroke-miterlimit:10;}
	.st3{fill:#CC0000;}
	.st4{fill:url(#SVGID_1_);}
	.st5{fill:url(#SVGID_2_);}
	.st6{fill:url(#SVGID_3_);}
	.st7{fill:url(#SVGID_4_);}
	.st8{fill:url(#SVGID_5_);}
	.st9{fill:url(#SVGID_6_);}
	.st10{fill:#FF0000;}
</style>
<g class="st0">
	<path class="st1" d="M237.8,53.7h-37.2l2.1,10.1l-42.5,57.3h15.4l9.1-12.3l28.9,0.4l3.8,12h39.9l-15.4-64.3
		C241.3,55,239.6,53.7,237.8,53.7z M189.5,103.1L206.4,79l5.3,24.1H189.5z"/>
	<path class="st1" d="M262.6,121.1L274,81.4c0.2-0.9,0.1-1.8-0.4-2.5l-3.7-5.4c-0.6-0.9,0-2,1.1-2h102.9c3.9,0,10.4,3,10.4,9.5
		l-8.6,31.2c-0.3,0.9,0.4,1.8,1.4,1.8h6l-8.4,7H342l11.2-39c1.5-5.9-7.1-7.7-8.9,0l-10.6,39.1H302l11-38.7c2-7.2-6.7-7.5-8.7,0
		l-10.1,38.7C294.2,121.1,262.6,121.1,262.6,121.1z"/>
	<path class="st1" d="M659.5,79.5c-1.3-5.1-4.2-6.9-8.5-8h-65.3c-0.7,0-1.1,0.9-0.6,1.4l4.2,4.6h37.2c6.8,0,2.6,7,0,7h-36.8
		c-13.9,2.8-17.4,22.6-17.3,27.2c0.1,6.1,8.5,9.3,8.5,9.3h68.4l8.9-7.4h-5.9c-0.7,0-1.2-0.7-0.9-1.4
		C653.5,106.8,661.4,86.8,659.5,79.5z M619.4,116h-15.1l6-25.3h15.4L619.4,116z"/>
	<path class="st1" d="M476.4,79.7c-1.3-5.1-4.2-6.9-8.5-8h-64.4c-1.1,0-1.7,1.3-0.9,2.1l3.6,4h37.2c6.8,0,2.6,7,0,7h-36.8
		c-13.9,2.8-17.4,22.6-17.3,27.2c0.1,6.1,8.5,9.3,8.5,9.3h68.4l8.9-7.4h-5.5c-0.9,0-1.5-0.9-1.2-1.7
		C470.8,106.3,478.3,86.9,476.4,79.7z M436.4,116.2h-15.1l6-25.3h15.4L436.4,116.2z"/>
	<path class="st1" d="M560.5,71.5h-71.2c-0.9,0-1.4,1.1-0.8,1.8l4.1,4.4c0.6,0.7,0.9,1.7,0.6,2.6l-15.1,53h31.1l2-11.6l33.7-0.1
		c6.6,0,12.8-3.1,16.8-8.4l0.1-0.1c3.1-4,8.6-25,8.5-32.3C570.4,76.7,566.5,72.4,560.5,71.5z M530.7,115.8h-17.6l9.9-38.6h17.3
		L530.7,115.8z"/>
	<polygon class="st1" points="606.3,61.5 634.3,55.7 639.3,65.3 608.3,65.3 	"/>
	<circle class="st2" cx="86.1" cy="88.5" r="62.2"/>
	<polygon class="st1" points="39.6,103.6 58.4,71.4 70,71.4 51.4,103.6 	"/>
	<polygon class="st1" points="54,103.6 72.7,71.4 84.3,71.4 66,103.6 	"/>
	<polygon class="st1" points="68.5,103.6 87.3,71.4 98.9,71.4 80.3,103.6 	"/>
	<path class="st1" d="M84.8,103.6l18.4-32.2h8.8c0.9,0,1.7,0.5,2.1,1.2l16.2,29.1c0.5,0.8-0.1,1.8-1.1,1.8h-29.1l4.9-8
		c0.4-0.7,1.2-1.2,2.1-1.2h6.4l-5-9.9c-0.3-0.7-1.3-0.7-1.7,0l-10.6,19.1H84.8V103.6z"/>
</g>
<g>
	<path d="M168.4,44.7c0,0-49.4,43.2-49.4,64.6c-0.1,45.1,101.9,45.2,138.2,44.7c80.2-1,130.9-9.3,130.9-9.3
		c-7.4,0.7-14.8,1.2-22.2,1.7c-17.9,1.1-35.9,1.8-53.8,1.9c-22.1,0.2-44.2-0.4-66.2-2.5c-20-1.9-40.4-4.8-59.5-11.7
		c-10.7-3.8-21.6-9.6-28.7-18.8c-8.6-11.1-9.1-25.5-4.9-38.5c1.6-4.9,3.6-9.6,5.8-14.3c1.4-2.9,2.8-5.7,4.3-8.4
		C164.4,51.5,166,46.8,168.4,44.7z"/>
	<path class="st3" d="M500.5,129c0,0,49.4-43.2,49.4-64.6c0.1-45.1-101.9-45.2-138.2-44.7c-80.2,1-130.9,9.3-130.9,9.3
		c7.2-0.7,14.4-1.2,21.5-1.6c17.5-1.1,34.9-1.8,52.4-1.9c21.7-0.2,43.4,0.3,65,2.2c20,1.8,40.3,4.5,59.4,10.8
		c11.4,3.7,23.1,9.2,31,18.4c9,10.5,10.4,24.4,6.7,37.4c-1.5,5.2-3.5,10.2-5.7,15.1c-1.4,3.1-3,6.2-4.6,9.2
		C504.9,121.5,503.1,126.7,500.5,129z"/>
	<linearGradient id="SVGID_1_" gradientUnits="userSpaceOnUse" x1="232.0153" y1="57.4791" x2="232.0153" y2="111.05">
		<stop  offset="0" style="stop-color:#404040"/>
		<stop  offset="1" style="stop-color:#000000"/>
	</linearGradient>
	<path class="st4" d="M250.2,111.1c-17.6,0-36.5-8.6-36.5-26.7c0-7.2,5.8-26.8,36.5-26.8V70c-21.5-1.9-20.2,7.5-20.2,7.5l20.2,0.3
		v12.9h-19.9c0,0-0.9,8.7,19.9,7.3L250.2,111.1z"/>
	<linearGradient id="SVGID_2_" gradientUnits="userSpaceOnUse" x1="372.3851" y1="57.3548" x2="372.3851" y2="110.9257">
		<stop  offset="0" style="stop-color:#404040"/>
		<stop  offset="1" style="stop-color:#000000"/>
	</linearGradient>
	<path class="st5" d="M390.6,110.9c-17.6,0-36.5-8.6-36.5-26.7c0-7.2,5.8-26.8,36.5-26.8v12.6c-21.5-1.9-20.2,7.5-20.2,7.5l20.2,0.3
		v12.9h-19.9c0,0-0.9,8.7,19.9,7.3L390.6,110.9z"/>
	<linearGradient id="SVGID_3_" gradientUnits="userSpaceOnUse" x1="271.2552" y1="57.4791" x2="271.2552" y2="110.8014">
		<stop  offset="0" style="stop-color:#404040"/>
		<stop  offset="1" style="stop-color:#000000"/>
	</linearGradient>
	<path class="st6" d="M288.9,57.5c-31.3,0-35.3,16.8-35.3,25.5c0,17.1,7.9,27.8,35.4,27.8l0-12.7c-12.2,0-20.4-0.3-20.4-15.1
		c0-12.7,10.6-12.9,20.4-12.9V57.5z"/>
	<linearGradient id="SVGID_4_" gradientUnits="userSpaceOnUse" x1="333.3929" y1="37.0948" x2="333.3929" y2="131.1248">
		<stop  offset="0" style="stop-color:#CC0000"/>
		<stop  offset="1" style="stop-color:#6D0000"/>
	</linearGradient>
	<polygon class="st7" points="306.6,37.2 288.9,131.1 301.6,131.1 308.1,99.4 326.8,84.3 355,131.1 367.7,131.1 337.1,77.5 
		377.9,37.1 362.6,37.1 311.9,82.9 319.4,37.1 	"/>
	<linearGradient id="SVGID_5_" gradientUnits="userSpaceOnUse" x1="416.7658" y1="57.3549" x2="416.7658" y2="110.9256">
		<stop  offset="0" style="stop-color:#404040"/>
		<stop  offset="1" style="stop-color:#000000"/>
	</linearGradient>
	<path class="st8" d="M426.6,83c0,0,7.1-3,7.1-10.4c0-9.6-5.3-15.2-17.7-15.2c-10.4,0-18,7.7-18,15.4l0.2,38.2H411V90.5
		c0,0,4.3,0,5.8,0c4.2,0,6.9,0.2,6.9,2.8l-0.1,17.6h11.9c0,0,0-16.1,0-21.1C435.5,85.2,426.6,83,426.6,83z M421.1,76.3
		c-0.1,0.7-0.6,1.6-1.1,2.2c-1.6,1.8-3.5,2.2-9,1.8c0,0-0.4-8.5,1.2-10.3c0.7-0.8,2.6-1.9,3.1-2C420.2,67,422.1,71.5,421.1,76.3z"/>
	<linearGradient id="SVGID_6_" gradientUnits="userSpaceOnUse" x1="191.081" y1="55.9875" x2="191.081" y2="110.8014">
		<stop  offset="0" style="stop-color:#404040"/>
		<stop  offset="1" style="stop-color:#000000"/>
	</linearGradient>
	<path class="st9" d="M201.5,83c0,0,7.3-3.1,7.3-11.4c0-9-10.1-15.6-18.9-15.6c-11.7,0-17.9,7.8-17.9,16.7l-0.1,38.1h22.8
		c0,0,15.5-4,15.5-14.8C210.2,84.6,201.5,83,201.5,83z M186.1,69.8c0.7-0.8,2.5-1.9,3-2c4.9-0.9,6.8,2.6,5.8,7.5
		c-0.1,0.7-0.6,1.6-1.1,2.2c-1.6,1.8-3.6,3.3-9.1,2.9C184.7,80.3,184.6,71.6,186.1,69.8z M184.7,100.6V87.9c7.5,0,12.7-0.2,12.7,6.9
		C197.4,99.6,193.1,100.6,184.7,100.6z"/>
	<path d="M441.3,136.2c-0.9-1.3-1.2-3-1.2-4.6c0.1-2.4,1.3-4.9,3.3-6.3c0.9-0.7,1.9-1.3,2.8-2c0.3,1.1,0.2,2.7,0.2,2.7
		c0,0.1-1.7,1.3-1.9,1.5c-0.6,0.7-1.1,1.4-1.4,2.3c-0.6,1.6-0.6,3.8,0.6,5.2c2,2.4,6.7,1.2,8.9-0.3c5.1-3.5,4.7-9.7,4-15.2
		c-1.8,1.5-4.4,1.7-6.7,1.6c-2,0-3.7-0.6-4.4-2.6c-1.1-3.2,0.4-6.9,1.9-9.7c2.3-4.4,5.5-8.8,10.4-10.4c3-1,5.9-0.6,9-0.5
		c-0.2,0-1.8,7.4-1.9,8c-0.9,3.5-1.9,7-2.5,10.5c-0.6,3.6,0,7.3-0.7,10.9c-0.7,3.4-2.5,6.5-5.2,8.7c-3.1,2.5-7.1,3.3-11,2.4
		C443.9,138.1,442.2,137.4,441.3,136.2z M457,116.2c2-1.9,3.2-4.4,4-7c0.6-2,2.2-6.6,0-8.3c-0.8-0.6-1.9-0.4-2.8,0
		c-6.2,2.3-8.7,8.5-9.6,14.6c-0.1,0.7,0,1.5,0.5,2c1.6,1.7,4.9,0.7,6.6-0.4C456.2,116.9,456.7,116.5,457,116.2z"/>
	<path d="M475.8,123.4c-1.1-0.2-2.1-0.6-2.9-1.3c-0.8-0.7-1.5-1.5-2-2.6c-0.5-1-0.8-2.2-0.9-3.5c-0.2-1.3-0.1-2.7,0.1-4.1
		c0.3-2,0.9-3.9,1.8-5.6s2-3.2,3.3-4.5c1.3-1.3,2.7-2.2,4.2-2.9c1.5-0.7,3-0.9,4.6-0.6c1.1,0.2,2.1,0.6,2.9,1.3
		c0.8,0.7,1.5,1.5,2,2.6s0.8,2.2,1,3.5s0.1,2.7-0.1,4.1c-0.3,2-0.9,3.8-1.8,5.6c-0.9,1.7-2,3.2-3.2,4.5c-1.3,1.3-2.7,2.2-4.2,2.9
		C478.9,123.5,477.4,123.7,475.8,123.4z M476.7,120.7c1,0.2,2.1,0,3.2-0.5s2.1-1.2,3.1-2.2c1-1,1.8-2.2,2.5-3.5
		c0.7-1.4,1.2-2.9,1.4-4.5c0.2-1.1,0.2-2.2,0.1-3.2c-0.1-1-0.3-1.9-0.7-2.7c-0.4-0.8-0.8-1.4-1.4-1.9c-0.6-0.5-1.2-0.8-2-0.9
		c-1-0.2-2.1,0-3.2,0.5c-1.1,0.5-2.1,1.2-3.1,2.2c-1,1-1.8,2.2-2.5,3.6c-0.7,1.4-1.2,2.9-1.4,4.5c-0.2,1.1-0.2,2.2-0.1,3.2
		c0.1,1,0.3,1.9,0.7,2.7c0.4,0.8,0.8,1.4,1.4,1.9C475.3,120.2,476,120.5,476.7,120.7z"/>
	<circle class="st10" cx="495.6" cy="119.9" r="3.7"/>
</g>
</svg>
