<?xml version="1.0" encoding="utf-8"?>
<!-- Generator: Adobe Illustrator 25.0.0, SVG Export Plug-In . SVG Version: 6.00 Build 0)  -->
<svg version="1.1" id="Capa_1" xmlns="http://www.w3.org/2000/svg" xmlns:xlink="http://www.w3.org/1999/xlink" x="0px" y="0px"
	 viewBox="0 0 478 170.1" style="enable-background:new 0 0 478 170.1;" xml:space="preserve">
<style type="text/css">
	.st0{display:none;}
	.st1{display:inline;fill:#FF9600;}
	.st2{display:inline;fill:none;stroke:#FF9600;stroke-width:7;stroke-miterlimit:10;}
	.st3{display:inline;}
	.st4{display:inline;fill:#CC0000;}
	.st5{display:inline;fill:url(#SVGID_1_);}
	.st6{display:inline;fill:url(#SVGID_2_);}
	.st7{display:inline;fill:url(#SVGID_3_);}
	.st8{display:inline;fill:url(#SVGID_4_);}
	.st9{display:inline;fill:url(#SVGID_5_);}
	.st10{display:inline;fill:url(#SVGID_6_);}
	.st11{display:inline;fill:#FF0000;}
	.st12{fill:url(#SVGID_7_);}
	.st13{fill:#FFFFFF;}
</style>
<g class="st0">
	<path class="st1" d="M135.8,53.7H98.6l2.1,10.1l-42.5,57.3h15.4l9.1-12.3l28.9,0.4l3.8,12h39.9l-15.4-64.3
		C139.3,55,137.6,53.7,135.8,53.7z M87.5,103.1L104.4,79l5.3,24.1H87.5z"/>
	<path class="st1" d="M160.6,121.1L172,81.4c0.2-0.9,0.1-1.8-0.4-2.5l-3.7-5.4c-0.6-0.9,0-2,1.1-2h102.9c3.9,0,10.4,3,10.4,9.5
		l-8.6,31.2c-0.3,0.9,0.4,1.8,1.4,1.8h6l-8.4,7H240l11.2-39c1.5-5.9-7.1-7.7-8.9,0l-10.6,39.1H200l11-38.7c2-7.2-6.7-7.5-8.7,0
		l-10.1,38.7C192.2,121.1,160.6,121.1,160.6,121.1z"/>
	<path class="st1" d="M557.5,79.5c-1.3-5.1-4.2-6.9-8.5-8h-65.3c-0.7,0-1.1,0.9-0.6,1.4l4.2,4.6h37.2c6.8,0,2.6,7,0,7h-36.8
		c-13.9,2.8-17.4,22.6-17.3,27.2c0.1,6.1,8.5,9.3,8.5,9.3h68.4l8.9-7.4h-5.9c-0.7,0-1.2-0.7-0.9-1.4
		C551.5,106.8,559.4,86.8,557.5,79.5z M517.4,116h-15.1l6-25.3h15.4L517.4,116z"/>
	<path class="st1" d="M374.4,79.7c-1.3-5.1-4.2-6.9-8.5-8h-64.4c-1.1,0-1.7,1.3-0.9,2.1l3.6,4h37.2c6.8,0,2.6,7,0,7h-36.8
		c-13.9,2.8-17.4,22.6-17.3,27.2c0.1,6.1,8.5,9.3,8.5,9.3h68.4l8.9-7.4h-5.5c-0.9,0-1.5-0.9-1.2-1.7
		C368.8,106.3,376.3,86.9,374.4,79.7z M334.4,116.2h-15.1l6-25.3h15.4L334.4,116.2z"/>
	<path class="st1" d="M458.5,71.5h-71.2c-0.9,0-1.4,1.1-0.8,1.8l4.1,4.4c0.6,0.7,0.9,1.7,0.6,2.6l-15.1,53h31.1l2-11.6l33.7-0.1
		c6.6,0,12.8-3.1,16.8-8.4l0.1-0.1c3.1-4,8.6-25,8.5-32.3C468.4,76.7,464.5,72.4,458.5,71.5z M428.7,115.8h-17.6l9.9-38.6h17.3
		L428.7,115.8z"/>
	<polygon class="st1" points="504.3,61.5 532.3,55.7 537.3,65.3 506.3,65.3 	"/>
	<circle class="st2" cx="-15.9" cy="88.5" r="62.2"/>
	<polygon class="st1" points="-62.4,103.6 -43.6,71.4 -32,71.4 -50.6,103.6 	"/>
	<polygon class="st1" points="-48,103.6 -29.3,71.4 -17.7,71.4 -36,103.6 	"/>
	<polygon class="st1" points="-33.5,103.6 -14.7,71.4 -3.1,71.4 -21.7,103.6 	"/>
	<path class="st1" d="M-17.2,103.6L1.2,71.4H10c0.9,0,1.7,0.5,2.1,1.2l16.2,29.1c0.5,0.8-0.1,1.8-1.1,1.8H-1.9l4.9-8
		c0.4-0.7,1.2-1.2,2.1-1.2h6.4l-5-9.9c-0.3-0.7-1.3-0.7-1.7,0l-10.6,19.1h-11.4V103.6z"/>
</g>
<g class="st0">
	<path class="st3" d="M66.4,44.7c0,0-49.4,43.2-49.4,64.6c-0.1,45.1,101.9,45.2,138.2,44.7c80.2-1,130.9-9.3,130.9-9.3
		c-7.4,0.7-14.8,1.2-22.2,1.7c-17.9,1.1-35.9,1.8-53.8,1.9c-22.1,0.2-44.2-0.4-66.2-2.5c-20-1.9-40.4-4.8-59.5-11.7
		c-10.7-3.8-21.6-9.6-28.7-18.8c-8.6-11.1-9.1-25.5-4.9-38.5c1.6-4.9,3.6-9.6,5.8-14.3c1.4-2.9,2.8-5.7,4.3-8.4
		C62.4,51.5,64,46.8,66.4,44.7z"/>
	<path class="st4" d="M398.5,129c0,0,49.4-43.2,49.4-64.6C448,19.3,346,19.2,309.7,19.7c-80.2,1-130.9,9.3-130.9,9.3
		c7.2-0.7,14.4-1.2,21.5-1.6c17.5-1.1,34.9-1.8,52.4-1.9c21.7-0.2,43.4,0.3,65,2.2c20,1.8,40.3,4.5,59.4,10.8
		c11.4,3.7,23.1,9.2,31,18.4c9,10.5,10.4,24.4,6.7,37.4c-1.5,5.2-3.5,10.2-5.7,15.1c-1.4,3.1-3,6.2-4.6,9.2
		C402.9,121.5,401.1,126.7,398.5,129z"/>
	
		<linearGradient id="SVGID_1_" gradientUnits="userSpaceOnUse" x1="129.95" y1="114.5209" x2="129.95" y2="60.95" gradientTransform="matrix(1 0 0 -1 0 172)">
		<stop  offset="0" style="stop-color:#404040"/>
		<stop  offset="1" style="stop-color:#000000"/>
	</linearGradient>
	<path class="st5" d="M148.2,111.1c-17.6,0-36.5-8.6-36.5-26.7c0-7.2,5.8-26.8,36.5-26.8V70c-21.5-1.9-20.2,7.5-20.2,7.5l20.2,0.3
		v12.9h-19.9c0,0-0.9,8.7,19.9,7.3V111.1z"/>
	
		<linearGradient id="SVGID_2_" gradientUnits="userSpaceOnUse" x1="270.35" y1="114.6" x2="270.35" y2="61.0291" gradientTransform="matrix(1 0 0 -1 0 172)">
		<stop  offset="0" style="stop-color:#404040"/>
		<stop  offset="1" style="stop-color:#000000"/>
	</linearGradient>
	<path class="st6" d="M288.6,110.9c-17.6,0-36.5-8.6-36.5-26.7c0-7.2,5.8-26.8,36.5-26.8V70c-21.5-1.9-20.2,7.5-20.2,7.5l20.2,0.3
		v12.9h-19.9c0,0-0.9,8.7,19.9,7.3V110.9z"/>
	
		<linearGradient id="SVGID_3_" gradientUnits="userSpaceOnUse" x1="169.3" y1="114.5" x2="169.3" y2="61.2" gradientTransform="matrix(1 0 0 -1 0 172)">
		<stop  offset="0" style="stop-color:#404040"/>
		<stop  offset="1" style="stop-color:#000000"/>
	</linearGradient>
	<path class="st7" d="M186.9,57.5c-31.3,0-35.3,16.8-35.3,25.5c0,17.1,7.9,27.8,35.4,27.8V98.1c-12.2,0-20.4-0.3-20.4-15.1
		c0-12.7,10.6-12.9,20.4-12.9V57.5H186.9z"/>
	
		<linearGradient id="SVGID_4_" gradientUnits="userSpaceOnUse" x1="231.4" y1="134.9" x2="231.4" y2="40.9" gradientTransform="matrix(1 0 0 -1 0 172)">
		<stop  offset="0" style="stop-color:#CC0000"/>
		<stop  offset="1" style="stop-color:#6D0000"/>
	</linearGradient>
	<polygon class="st8" points="204.6,37.2 186.9,131.1 199.6,131.1 206.1,99.4 224.8,84.3 253,131.1 265.7,131.1 235.1,77.5 
		275.9,37.1 260.6,37.1 209.9,82.9 217.4,37.1 	"/>
	
		<linearGradient id="SVGID_5_" gradientUnits="userSpaceOnUse" x1="314.75" y1="114.6" x2="314.75" y2="61" gradientTransform="matrix(1 0 0 -1 0 172)">
		<stop  offset="0" style="stop-color:#404040"/>
		<stop  offset="1" style="stop-color:#000000"/>
	</linearGradient>
	<path class="st9" d="M324.6,83c0,0,7.1-3,7.1-10.4c0-9.6-5.3-15.2-17.7-15.2c-10.4,0-18,7.7-18,15.4l0.2,38.2H309V90.5
		c0,0,4.3,0,5.8,0c4.2,0,6.9,0.2,6.9,2.8l-0.1,17.6h11.9c0,0,0-16.1,0-21.1C333.5,85.2,324.6,83,324.6,83z M319.1,76.3
		c-0.1,0.7-0.6,1.6-1.1,2.2c-1.6,1.8-3.5,2.2-9,1.8c0,0-0.4-8.5,1.2-10.3c0.7-0.8,2.6-1.9,3.1-2C318.2,67,320.1,71.5,319.1,76.3z"/>
	
		<linearGradient id="SVGID_6_" gradientUnits="userSpaceOnUse" x1="89.05" y1="116" x2="89.05" y2="61.2" gradientTransform="matrix(1 0 0 -1 0 172)">
		<stop  offset="0" style="stop-color:#404040"/>
		<stop  offset="1" style="stop-color:#000000"/>
	</linearGradient>
	<path class="st10" d="M99.5,83c0,0,7.3-3.1,7.3-11.4c0-9-10.1-15.6-18.9-15.6C76.2,56,70,63.8,70,72.7l-0.1,38.1h22.8
		c0,0,15.5-4,15.5-14.8C108.2,84.6,99.5,83,99.5,83z M84.1,69.8c0.7-0.8,2.5-1.9,3-2c4.9-0.9,6.8,2.6,5.8,7.5
		c-0.1,0.7-0.6,1.6-1.1,2.2c-1.6,1.8-3.6,3.3-9.1,2.9C82.7,80.3,82.6,71.6,84.1,69.8z M82.7,100.6V87.9c7.5,0,12.7-0.2,12.7,6.9
		C95.4,99.6,91.1,100.6,82.7,100.6z"/>
	<path class="st3" d="M339.3,136.2c-0.9-1.3-1.2-3-1.2-4.6c0.1-2.4,1.3-4.9,3.3-6.3c0.9-0.7,1.9-1.3,2.8-2c0.3,1.1,0.2,2.7,0.2,2.7
		c0,0.1-1.7,1.3-1.9,1.5c-0.6,0.7-1.1,1.4-1.4,2.3c-0.6,1.6-0.6,3.8,0.6,5.2c2,2.4,6.7,1.2,8.9-0.3c5.1-3.5,4.7-9.7,4-15.2
		c-1.8,1.5-4.4,1.7-6.7,1.6c-2,0-3.7-0.6-4.4-2.6c-1.1-3.2,0.4-6.9,1.9-9.7c2.3-4.4,5.5-8.8,10.4-10.4c3-1,5.9-0.6,9-0.5
		c-0.2,0-1.8,7.4-1.9,8c-0.9,3.5-1.9,7-2.5,10.5c-0.6,3.6,0,7.3-0.7,10.9c-0.7,3.4-2.5,6.5-5.2,8.7c-3.1,2.5-7.1,3.3-11,2.4
		C341.9,138.1,340.2,137.4,339.3,136.2z M355,116.2c2-1.9,3.2-4.4,4-7c0.6-2,2.2-6.6,0-8.3c-0.8-0.6-1.9-0.4-2.8,0
		c-6.2,2.3-8.7,8.5-9.6,14.6c-0.1,0.7,0,1.5,0.5,2c1.6,1.7,4.9,0.7,6.6-0.4C354.2,116.9,354.7,116.5,355,116.2z"/>
	<path class="st3" d="M373.8,123.4c-1.1-0.2-2.1-0.6-2.9-1.3c-0.8-0.7-1.5-1.5-2-2.6c-0.5-1-0.8-2.2-0.9-3.5
		c-0.2-1.3-0.1-2.7,0.1-4.1c0.3-2,0.9-3.9,1.8-5.6s2-3.2,3.3-4.5s2.7-2.2,4.2-2.9c1.5-0.7,3-0.9,4.6-0.6c1.1,0.2,2.1,0.6,2.9,1.3
		c0.8,0.7,1.5,1.5,2,2.6s0.8,2.2,1,3.5s0.1,2.7-0.1,4.1c-0.3,2-0.9,3.8-1.8,5.6c-0.9,1.7-2,3.2-3.2,4.5c-1.3,1.3-2.7,2.2-4.2,2.9
		C376.9,123.5,375.4,123.7,373.8,123.4z M374.7,120.7c1,0.2,2.1,0,3.2-0.5s2.1-1.2,3.1-2.2s1.8-2.2,2.5-3.5c0.7-1.4,1.2-2.9,1.4-4.5
		c0.2-1.1,0.2-2.2,0.1-3.2s-0.3-1.9-0.7-2.7c-0.4-0.8-0.8-1.4-1.4-1.9s-1.2-0.8-2-0.9c-1-0.2-2.1,0-3.2,0.5s-2.1,1.2-3.1,2.2
		s-1.8,2.2-2.5,3.6s-1.2,2.9-1.4,4.5c-0.2,1.1-0.2,2.2-0.1,3.2s0.3,1.9,0.7,2.7c0.4,0.8,0.8,1.4,1.4,1.9
		C373.3,120.2,374,120.5,374.7,120.7z"/>
	<circle class="st11" cx="393.6" cy="119.9" r="3.7"/>
</g>
<g>
	
		<linearGradient id="SVGID_7_" gradientUnits="userSpaceOnUse" x1="15.1464" y1="86.95" x2="462.8464" y2="86.95" gradientTransform="matrix(1 0 0 -1 0 172)">
		<stop  offset="0.3508" style="stop-color:#004999"/>
		<stop  offset="0.6553" style="stop-color:#EF7B10"/>
	</linearGradient>
	<path class="st12" d="M396.8,151.1H81.1c-36.5,0-66-29.5-66-66l0,0c0-36.5,29.5-66,66-66h315.7c36.5,0,66,29.5,66,66l0,0
		C462.8,121.4,433.3,151.1,396.8,151.1z"/>
	<g>
		<polygon class="st13" points="95.3,136.6 95.3,30.2 396.6,30.2 396.6,48 116.3,48 116.5,56.4 140.6,56.4 140.4,73.4 117.5,73.4 
			117.5,136.6 		"/>
		<path d="M118.6,137.8H94.2V29.1h303.5v20.1H117.4l0.1,6.2h24.1l-0.2,19.2h-22.9L118.6,137.8L118.6,137.8z M96.4,135.6h20V72.3
			h22.9l0.1-14.7h-24.1l-0.1-10.7h280.3V31.3H96.4V135.6z"/>
	</g>
	<g>
		<rect x="224.1" y="56.4" class="st13" width="21.1" height="80.2"/>
		<path d="M246.4,137.8H223V55.3h23.4V137.8z M225.2,135.6h18.9v-78h-18.9V135.6z"/>
	</g>
	<g>
		<polygon class="st13" points="343.7,136.6 396.6,136.6 396.6,121.6 365.1,121.6 365.1,56.4 343.7,56.4 		"/>
		<path d="M397.8,137.8h-55.2V55.3h23.6v65.1h31.6V137.8z M344.8,135.6h50.8v-12.8H364V57.5h-19.2V135.6z"/>
	</g>
	<g>
		<path class="st13" d="M208.5,117c-0.4-1.4-1.2-3.7-2.1-6c-0.8-2-1.7-4.1-2.8-6c-2.5-4.2-6.6-7.3-11.4-8.4l0,0l4.5-1.4
			c7.9-2.3,14.3-10.3,14.5-18.5c0.4-12.6-11.9-20.2-23.4-20.2h-39.7v80.2h19.7v-32.1c7.8,0,14.3,0.5,16.4,6.7
			c1.7,4.8,7.9,25.5,7.9,25.5h23.2L208.5,117z M190.5,80.5c0,5.8-4.7,9.8-10.4,10.2l-11.3,0.2V70l11.3,0.2
			C185.9,70.5,190.5,74.8,190.5,80.5L190.5,80.5z"/>
		<path d="M217,137.8h-25.5l-0.2-0.8c-0.1-0.2-6.2-20.7-7.9-25.4c-1.8-5.2-7.3-5.9-14.3-5.9c0,5.7,0,31,0,31v1.1h-21.9V55.3H188
			c7.4,0,14.6,2.9,19.2,7.7c3.7,3.8,5.5,8.5,5.3,13.7c-0.3,8.6-6.9,17-15.3,19.5l-1.2,0.4c3.6,1.6,6.7,4.3,8.7,7.8
			c1,1.8,2,3.8,2.9,6.2c0.9,2.2,1.7,4.6,2.1,6.1L217,137.8z M193.1,135.6h20.8l-6.4-18.2c-0.4-1.5-1.2-3.8-2.1-6
			c-0.9-2.3-1.8-4.2-2.7-5.9c-2.3-3.9-6.2-6.8-10.7-7.9l-4-1l8.5-2.5c7.6-2.3,13.5-9.8,13.8-17.5c0.2-4.5-1.5-8.7-4.7-12.1
			c-4.2-4.3-10.9-7-17.6-7h-38.5v78h17.3v-30.7c0-1,0.4-1.5,1.1-1.5c8.1,0,15.1,0.6,17.5,7.4C186.9,115.1,191.9,131.6,193.1,135.6z
			 M167.7,92V68.9l12.4,0.2c6.6,0.2,11.5,5.1,11.5,11.3c0,6.1-4.8,10.8-11.4,11.3h-0.1L167.7,92z M169.9,71.2v18.6l10.2-0.2
			c5.4-0.4,9.3-4.3,9.3-9.1c0-5-4-8.9-9.4-9.1L169.9,71.2z"/>
	</g>
	<g>
		<path class="st13" d="M308.4,56.4h-26.3l-29.8,80.2h20.6l6.1-17.1h31.3l5.5,17.1h22.6L308.4,56.4z M284.3,104.6l10.2-30.4
			l10.2,30.4H284.3z"/>
		<path d="M339.8,137.8h-25l-5.5-17.1h-29.7l-6.1,17.1h-22.9l30.6-82.4h27.9l0.3,0.7L339.8,137.8z M316.4,135.6h20.2l-29-78h-24.8
			l-29,78H272l6.1-17.1H311L316.4,135.6z M306.2,105.8h-23.5l11.7-35L306.2,105.8z M285.8,103.5h17.3l-8.7-25.8L285.8,103.5z"/>
	</g>
	<polygon class="st13" points="83.3,51.2 68.2,59.6 68.2,42.4 62.9,44.7 62.9,62.4 40.5,76.4 40.5,51.2 57.6,39.7 54.6,34.3 
		40.5,43.9 40.5,31.3 34.4,36.4 34.4,44.2 30,41 26.7,45.4 34.3,50.8 34.3,76.4 17,66.1 16.2,72.9 31.7,82 15.1,91.1 16.3,98.2 
		34.2,87.3 34.4,112.5 23.9,119.9 26.8,124.5 34.3,119.5 34.4,133.6 40,138.8 40,119.8 54,129.1 57.3,123.8 40.7,112.8 40.7,87.1 
		61.9,100.6 62.7,119.8 69,122 69,104.5 83.3,113.1 88.1,106.9 72,98.3 86.8,90.8 82.9,85.9 65.8,94.5 43,81.9 65.7,69.2 83.9,77.8 
		87.3,72.8 72,65.6 87.5,56.4 	"/>
	<path class="st13" d="M460.6,67c-0.7-3.2-13.2-13.9-13.2-13.9c11,18.8,10.3,35.5,10.3,35.5c-10.3-47.2-58.8-63-53.4-57.2
		c26.5,28.2,17,54.6,14.3,55.2c-4.1,0.9-2.2-20.4-14.3-30.1c0,0,3.5,14.5-0.7,45.7c-2,14.8,5.5,39.2,21.3,42.4
		c2,0.4,12.2-3.5,18.4-11.1c0,0,9.6-12.3,3.9-44c0,0,7.4,14.5,8.2,27.5C455.4,116.9,467.7,98.8,460.6,67z"/>
</g>
</svg>
