<?xml version="1.0" encoding="utf-8"?>
<!-- Generator: Adobe Illustrator 25.0.0, SVG Export Plug-In . SVG Version: 6.00 Build 0)  -->
<svg version="1.1" id="Capa_1" xmlns="http://www.w3.org/2000/svg" xmlns:xlink="http://www.w3.org/1999/xlink" x="0px" y="0px"
	 viewBox="0 0 680.3 170.1" style="enable-background:new 0 0 680.3 170.1;" xml:space="preserve">
<style type="text/css">
	.st0{display:none;}
	.st1{display:inline;fill:#FF9600;}
	.st2{display:inline;fill:none;stroke:#FF9600;stroke-width:7;stroke-miterlimit:10;}
	.st3{display:inline;}
	.st4{display:inline;fill:#CC0000;}
	.st5{display:inline;fill:url(#SVGID_1_);}
	.st6{display:inline;fill:url(#SVGID_2_);}
	.st7{display:inline;fill:url(#SVGID_3_);}
	.st8{display:inline;fill:url(#SVGID_4_);}
	.st9{display:inline;fill:url(#SVGID_5_);}
	.st10{display:inline;fill:url(#SVGID_6_);}
	.st11{display:inline;fill:#FF0000;}
	.st12{display:inline;fill:url(#SVGID_7_);}
	.st13{fill:#FFFFFF;}
	.st14{display:inline;fill:#FFFFFF;}
	.st15{display:inline;opacity:0.51;}
	.st16{fill:#2F4293;}
	.st17{fill:#E47022;}
	.st18{fill:#002A8A;}
	.st19{fill:#253879;}
	.st20{fill:url(#SVGID_8_);}
	.st21{fill:url(#SVGID_9_);}
	.st22{fill:url(#SVGID_10_);}
	.st23{fill:url(#SVGID_11_);}
	.st24{fill:url(#SVGID_12_);}
	.st25{fill:url(#SVGID_13_);}
	.st26{fill:url(#SVGID_14_);}
	.st27{fill:url(#SVGID_15_);}
</style>
<g class="st0">
	<path class="st1" d="M237.8,53.7h-37.2l2.1,10.1l-42.5,57.3h15.4l9.1-12.3l28.9,0.4l3.8,12h39.9l-15.4-64.3
		C241.3,55,239.6,53.7,237.8,53.7z M189.5,103.1L206.4,79l5.3,24.1H189.5z"/>
	<path class="st1" d="M262.6,121.1L274,81.4c0.2-0.9,0.1-1.8-0.4-2.5l-3.7-5.4c-0.6-0.9,0-2,1.1-2h102.9c3.9,0,10.4,3,10.4,9.5
		l-8.6,31.2c-0.3,0.9,0.4,1.8,1.4,1.8h6l-8.4,7H342l11.2-39c1.5-5.9-7.1-7.7-8.9,0l-10.6,39.1H302l11-38.7c2-7.2-6.7-7.5-8.7,0
		l-10.1,38.7C294.2,121.1,262.6,121.1,262.6,121.1z"/>
	<path class="st1" d="M659.5,79.5c-1.3-5.1-4.2-6.9-8.5-8h-65.3c-0.7,0-1.1,0.9-0.6,1.4l4.2,4.6h37.2c6.8,0,2.6,7,0,7h-36.8
		c-13.9,2.8-17.4,22.6-17.3,27.2c0.1,6.1,8.5,9.3,8.5,9.3h68.4l8.9-7.4h-5.9c-0.7,0-1.2-0.7-0.9-1.4
		C653.5,106.8,661.4,86.8,659.5,79.5z M619.4,116h-15.1l6-25.3h15.4L619.4,116z"/>
	<path class="st1" d="M476.4,79.7c-1.3-5.1-4.2-6.9-8.5-8h-64.4c-1.1,0-1.7,1.3-0.9,2.1l3.6,4h37.2c6.8,0,2.6,7,0,7h-36.8
		c-13.9,2.8-17.4,22.6-17.3,27.2c0.1,6.1,8.5,9.3,8.5,9.3h68.4l8.9-7.4h-5.5c-0.9,0-1.5-0.9-1.2-1.7
		C470.8,106.3,478.3,86.9,476.4,79.7z M436.4,116.2h-15.1l6-25.3h15.4L436.4,116.2z"/>
	<path class="st1" d="M560.5,71.5h-71.2c-0.9,0-1.4,1.1-0.8,1.8l4.1,4.4c0.6,0.7,0.9,1.7,0.6,2.6l-15.1,53h31.1l2-11.6l33.7-0.1
		c6.6,0,12.8-3.1,16.8-8.4l0.1-0.1c3.1-4,8.6-25,8.5-32.3C570.4,76.7,566.5,72.4,560.5,71.5z M530.7,115.8h-17.6l9.9-38.6h17.3
		L530.7,115.8z"/>
	<polygon class="st1" points="606.3,61.5 634.3,55.7 639.3,65.3 608.3,65.3 	"/>
	<circle class="st2" cx="86.1" cy="88.5" r="62.2"/>
	<polygon class="st1" points="39.6,103.6 58.4,71.4 70,71.4 51.4,103.6 	"/>
	<polygon class="st1" points="54,103.6 72.7,71.4 84.3,71.4 66,103.6 	"/>
	<polygon class="st1" points="68.5,103.6 87.3,71.4 98.9,71.4 80.3,103.6 	"/>
	<path class="st1" d="M84.8,103.6l18.4-32.2h8.8c0.9,0,1.7,0.5,2.1,1.2l16.2,29.1c0.5,0.8-0.1,1.8-1.1,1.8h-29.1l4.9-8
		c0.4-0.7,1.2-1.2,2.1-1.2h6.4l-5-9.9c-0.3-0.7-1.3-0.7-1.7,0l-10.6,19.1H84.8V103.6z"/>
</g>
<g class="st0">
	<path class="st3" d="M168.4,44.7c0,0-49.4,43.2-49.4,64.6c-0.1,45.1,101.9,45.2,138.2,44.7c80.2-1,130.9-9.3,130.9-9.3
		c-7.4,0.7-14.8,1.2-22.2,1.7c-17.9,1.1-35.9,1.8-53.8,1.9c-22.1,0.2-44.2-0.4-66.2-2.5c-20-1.9-40.4-4.8-59.5-11.7
		c-10.7-3.8-21.6-9.6-28.7-18.8c-8.6-11.1-9.1-25.5-4.9-38.5c1.6-4.9,3.6-9.6,5.8-14.3c1.4-2.9,2.8-5.7,4.3-8.4
		C164.4,51.5,166,46.8,168.4,44.7z"/>
	<path class="st4" d="M500.5,129c0,0,49.4-43.2,49.4-64.6c0.1-45.1-101.9-45.2-138.2-44.7c-80.2,1-130.9,9.3-130.9,9.3
		c7.2-0.7,14.4-1.2,21.5-1.6c17.5-1.1,34.9-1.8,52.4-1.9c21.7-0.2,43.4,0.3,65,2.2c20,1.8,40.3,4.5,59.4,10.8
		c11.4,3.7,23.1,9.2,31,18.4c9,10.5,10.4,24.4,6.7,37.4c-1.5,5.2-3.5,10.2-5.7,15.1c-1.4,3.1-3,6.2-4.6,9.2
		C504.9,121.5,503.1,126.7,500.5,129z"/>
	<linearGradient id="SVGID_1_" gradientUnits="userSpaceOnUse" x1="232.0153" y1="57.4791" x2="232.0153" y2="111.05">
		<stop  offset="0" style="stop-color:#404040"/>
		<stop  offset="1" style="stop-color:#000000"/>
	</linearGradient>
	<path class="st5" d="M250.2,111.1c-17.6,0-36.5-8.6-36.5-26.7c0-7.2,5.8-26.8,36.5-26.8V70c-21.5-1.9-20.2,7.5-20.2,7.5l20.2,0.3
		v12.9h-19.9c0,0-0.9,8.7,19.9,7.3L250.2,111.1z"/>
	<linearGradient id="SVGID_2_" gradientUnits="userSpaceOnUse" x1="372.3851" y1="57.3548" x2="372.3851" y2="110.9257">
		<stop  offset="0" style="stop-color:#404040"/>
		<stop  offset="1" style="stop-color:#000000"/>
	</linearGradient>
	<path class="st6" d="M390.6,110.9c-17.6,0-36.5-8.6-36.5-26.7c0-7.2,5.8-26.8,36.5-26.8v12.6c-21.5-1.9-20.2,7.5-20.2,7.5l20.2,0.3
		v12.9h-19.9c0,0-0.9,8.7,19.9,7.3L390.6,110.9z"/>
	<linearGradient id="SVGID_3_" gradientUnits="userSpaceOnUse" x1="271.2552" y1="57.4791" x2="271.2552" y2="110.8014">
		<stop  offset="0" style="stop-color:#404040"/>
		<stop  offset="1" style="stop-color:#000000"/>
	</linearGradient>
	<path class="st7" d="M288.9,57.5c-31.3,0-35.3,16.8-35.3,25.5c0,17.1,7.9,27.8,35.4,27.8l0-12.7c-12.2,0-20.4-0.3-20.4-15.1
		c0-12.7,10.6-12.9,20.4-12.9V57.5z"/>
	<linearGradient id="SVGID_4_" gradientUnits="userSpaceOnUse" x1="333.3929" y1="37.0948" x2="333.3929" y2="131.1248">
		<stop  offset="0" style="stop-color:#CC0000"/>
		<stop  offset="1" style="stop-color:#6D0000"/>
	</linearGradient>
	<polygon class="st8" points="306.6,37.2 288.9,131.1 301.6,131.1 308.1,99.4 326.8,84.3 355,131.1 367.7,131.1 337.1,77.5 
		377.9,37.1 362.6,37.1 311.9,82.9 319.4,37.1 	"/>
	<linearGradient id="SVGID_5_" gradientUnits="userSpaceOnUse" x1="416.7658" y1="57.3549" x2="416.7658" y2="110.9256">
		<stop  offset="0" style="stop-color:#404040"/>
		<stop  offset="1" style="stop-color:#000000"/>
	</linearGradient>
	<path class="st9" d="M426.6,83c0,0,7.1-3,7.1-10.4c0-9.6-5.3-15.2-17.7-15.2c-10.4,0-18,7.7-18,15.4l0.2,38.2H411V90.5
		c0,0,4.3,0,5.8,0c4.2,0,6.9,0.2,6.9,2.8l-0.1,17.6h11.9c0,0,0-16.1,0-21.1C435.5,85.2,426.6,83,426.6,83z M421.1,76.3
		c-0.1,0.7-0.6,1.6-1.1,2.2c-1.6,1.8-3.5,2.2-9,1.8c0,0-0.4-8.5,1.2-10.3c0.7-0.8,2.6-1.9,3.1-2C420.2,67,422.1,71.5,421.1,76.3z"/>
	<linearGradient id="SVGID_6_" gradientUnits="userSpaceOnUse" x1="191.081" y1="55.9875" x2="191.081" y2="110.8014">
		<stop  offset="0" style="stop-color:#404040"/>
		<stop  offset="1" style="stop-color:#000000"/>
	</linearGradient>
	<path class="st10" d="M201.5,83c0,0,7.3-3.1,7.3-11.4c0-9-10.1-15.6-18.9-15.6c-11.7,0-17.9,7.8-17.9,16.7l-0.1,38.1h22.8
		c0,0,15.5-4,15.5-14.8C210.2,84.6,201.5,83,201.5,83z M186.1,69.8c0.7-0.8,2.5-1.9,3-2c4.9-0.9,6.8,2.6,5.8,7.5
		c-0.1,0.7-0.6,1.6-1.1,2.2c-1.6,1.8-3.6,3.3-9.1,2.9C184.7,80.3,184.6,71.6,186.1,69.8z M184.7,100.6V87.9c7.5,0,12.7-0.2,12.7,6.9
		C197.4,99.6,193.1,100.6,184.7,100.6z"/>
	<path class="st3" d="M441.3,136.2c-0.9-1.3-1.2-3-1.2-4.6c0.1-2.4,1.3-4.9,3.3-6.3c0.9-0.7,1.9-1.3,2.8-2c0.3,1.1,0.2,2.7,0.2,2.7
		c0,0.1-1.7,1.3-1.9,1.5c-0.6,0.7-1.1,1.4-1.4,2.3c-0.6,1.6-0.6,3.8,0.6,5.2c2,2.4,6.7,1.2,8.9-0.3c5.1-3.5,4.7-9.7,4-15.2
		c-1.8,1.5-4.4,1.7-6.7,1.6c-2,0-3.7-0.6-4.4-2.6c-1.1-3.2,0.4-6.9,1.9-9.7c2.3-4.4,5.5-8.8,10.4-10.4c3-1,5.9-0.6,9-0.5
		c-0.2,0-1.8,7.4-1.9,8c-0.9,3.5-1.9,7-2.5,10.5c-0.6,3.6,0,7.3-0.7,10.9c-0.7,3.4-2.5,6.5-5.2,8.7c-3.1,2.5-7.1,3.3-11,2.4
		C443.9,138.1,442.2,137.4,441.3,136.2z M457,116.2c2-1.9,3.2-4.4,4-7c0.6-2,2.2-6.6,0-8.3c-0.8-0.6-1.9-0.4-2.8,0
		c-6.2,2.3-8.7,8.5-9.6,14.6c-0.1,0.7,0,1.5,0.5,2c1.6,1.7,4.9,0.7,6.6-0.4C456.2,116.9,456.7,116.5,457,116.2z"/>
	<path class="st3" d="M475.8,123.4c-1.1-0.2-2.1-0.6-2.9-1.3c-0.8-0.7-1.5-1.5-2-2.6c-0.5-1-0.8-2.2-0.9-3.5
		c-0.2-1.3-0.1-2.7,0.1-4.1c0.3-2,0.9-3.9,1.8-5.6s2-3.2,3.3-4.5c1.3-1.3,2.7-2.2,4.2-2.9c1.5-0.7,3-0.9,4.6-0.6
		c1.1,0.2,2.1,0.6,2.9,1.3c0.8,0.7,1.5,1.5,2,2.6s0.8,2.2,1,3.5s0.1,2.7-0.1,4.1c-0.3,2-0.9,3.8-1.8,5.6c-0.9,1.7-2,3.2-3.2,4.5
		c-1.3,1.3-2.7,2.2-4.2,2.9C478.9,123.5,477.4,123.7,475.8,123.4z M476.7,120.7c1,0.2,2.1,0,3.2-0.5s2.1-1.2,3.1-2.2
		c1-1,1.8-2.2,2.5-3.5c0.7-1.4,1.2-2.9,1.4-4.5c0.2-1.1,0.2-2.2,0.1-3.2c-0.1-1-0.3-1.9-0.7-2.7c-0.4-0.8-0.8-1.4-1.4-1.9
		c-0.6-0.5-1.2-0.8-2-0.9c-1-0.2-2.1,0-3.2,0.5c-1.1,0.5-2.1,1.2-3.1,2.2c-1,1-1.8,2.2-2.5,3.6c-0.7,1.4-1.2,2.9-1.4,4.5
		c-0.2,1.1-0.2,2.2-0.1,3.2c0.1,1,0.3,1.9,0.7,2.7c0.4,0.8,0.8,1.4,1.4,1.9C475.3,120.2,476,120.5,476.7,120.7z"/>
	<circle class="st11" cx="495.6" cy="119.9" r="3.7"/>
</g>
<g class="st0">
	<linearGradient id="SVGID_7_" gradientUnits="userSpaceOnUse" x1="116.2805" y1="85.05" x2="564.0194" y2="85.05">
		<stop  offset="0.3508" style="stop-color:#004999"/>
		<stop  offset="0.6553" style="stop-color:#EF7B10"/>
	</linearGradient>
	<path class="st12" d="M498,151.1H182.3c-36.5,0-66-29.5-66-66v0c0-36.5,29.5-66,66-66H498c36.5,0,66,29.5,66,66v0
		C564,121.5,534.5,151.1,498,151.1z"/>
	<g class="st3">
		<polygon class="st13" points="196.5,136.7 196.5,30.3 497.8,30.3 497.8,48.1 217.5,48.1 217.7,56.5 241.8,56.5 241.6,73.5 
			218.7,73.5 218.7,136.7 		"/>
		<path d="M219.8,137.8h-24.4l0-108.7h303.5l0,20.1H218.6l0.1,6.2h24.1l-0.2,19.2h-22.9V137.8z M197.6,135.6h20V72.4h22.9l0.1-14.7
			h-24.1L216.4,47h280.3l0-15.6H197.6L197.6,135.6z"/>
	</g>
	<g class="st3">
		<rect x="325.3" y="56.5" class="st13" width="21.1" height="80.2"/>
		<path d="M347.6,137.8h-23.4V55.4h23.4V137.8z M326.4,135.6h18.9v-78h-18.9V135.6z"/>
	</g>
	<g class="st3">
		<polygon class="st13" points="444.9,136.7 497.8,136.7 497.8,121.7 466.3,121.7 466.3,56.5 444.9,56.5 		"/>
		<path d="M499,137.8h-55.2V55.4h23.6v65.1H499V137.8z M446,135.6h50.8v-12.8h-31.6V57.6H446V135.6z"/>
	</g>
	<g class="st3">
		<path class="st13" d="M309.7,117.1c-0.4-1.4-1.2-3.7-2.1-6c-0.8-2-1.7-4.1-2.8-6c-2.5-4.2-6.6-7.3-11.4-8.4l0,0l4.5-1.4
			c7.9-2.3,14.3-10.3,14.5-18.5c0.4-12.6-11.9-20.2-23.4-20.2c0,0-39.7,0-39.7,0v80.2h19.7c0,0,0-32.1,0-32.1
			c7.8,0,14.3,0.5,16.4,6.7c1.7,4.8,7.9,25.5,7.9,25.5h23.2L309.7,117.1z M291.7,80.6c0,5.8-4.7,9.8-10.4,10.2L270,91V70.1l11.3,0.2
			C287.1,70.6,291.7,74.8,291.7,80.6L291.7,80.6z"/>
		<path d="M318.2,137.8h-25.5l-0.2-0.8c-0.1-0.2-6.2-20.7-7.9-25.4c-1.8-5.2-7.3-5.9-14.3-5.9c0,5.7,0,31,0,31v1.1h-21.9V55.4h40.8
			c7.4,0,14.6,2.9,19.2,7.7c3.7,3.8,5.5,8.5,5.3,13.7c-0.3,8.6-6.9,17-15.3,19.5l-1.2,0.4c3.6,1.6,6.7,4.3,8.7,7.8
			c1,1.8,2,3.8,2.9,6.2c0.9,2.2,1.7,4.6,2.1,6.1L318.2,137.8z M294.3,135.6h20.8l-6.4-18.2c-0.4-1.5-1.2-3.8-2.1-6
			c-0.9-2.3-1.8-4.2-2.7-5.9c-2.3-3.9-6.2-6.8-10.7-7.9l-4-1l8.5-2.5c7.6-2.3,13.5-9.8,13.8-17.5c0.2-4.5-1.5-8.7-4.7-12.1
			c-4.2-4.3-10.9-7-17.6-7h-38.5v78H268l0-30.7c0-1,0.4-1.5,1.1-1.5c8.1,0,15.1,0.6,17.5,7.4C288.1,115.2,293.1,131.7,294.3,135.6z
			 M268.9,92.1V69l12.4,0.2c6.6,0.2,11.5,5.1,11.5,11.3c0,6.1-4.8,10.8-11.4,11.3l-0.1,0L268.9,92.1z M271.1,71.3v18.6l10.2-0.2
			c5.4-0.4,9.3-4.3,9.3-9.1c0-5-4-8.9-9.4-9.1L271.1,71.3z"/>
	</g>
	<g class="st3">
		<path class="st13" d="M409.6,56.5h-26.3l-29.8,80.2h20.6l6.1-17.1h31.3l5.5,17.1h22.6L409.6,56.5z M385.5,104.7l10.2-30.4
			l10.2,30.4H385.5z"/>
		<path d="M441,137.8h-25l-5.5-17.1h-29.7l-6.1,17.1h-22.9l30.6-82.4h27.9l0.3,0.7L441,137.8z M417.6,135.6h20.2l-29-78H384l-29,78
			h18.2l6.1-17.1h32.9L417.6,135.6z M407.4,105.8h-23.5l11.7-35L407.4,105.8z M387,103.6h17.3l-8.7-25.8L387,103.6z"/>
	</g>
	<polygon class="st14" points="184.5,51.3 169.4,59.7 169.4,42.5 164.1,44.8 164.1,62.5 141.7,76.5 141.7,51.3 158.8,39.8 
		155.8,34.4 141.7,44 141.7,31.4 135.6,36.5 135.6,44.3 131.2,41.1 127.9,45.5 135.5,50.9 135.5,76.5 118.2,66.2 117.4,73 
		132.9,82.1 116.3,91.2 117.5,98.3 135.4,87.4 135.6,112.6 125.1,120 128,124.6 135.5,119.6 135.6,133.6 141.2,138.8 141.2,119.8 
		155.2,129.2 158.5,123.9 141.9,112.9 141.9,87.2 163.1,100.7 163.9,119.8 170.2,122.1 170.2,104.6 184.5,113.2 189.3,107 
		173.2,98.4 188,90.8 184.1,86 167,94.6 144.2,82 166.9,69.3 185.1,77.9 188.5,72.9 173.2,65.7 188.7,56.5 	"/>
	<path class="st14" d="M561.8,67.1c-0.7-3.2-13.2-13.9-13.2-13.9c11,18.8,10.3,35.5,10.3,35.5c-10.3-47.2-58.8-63-53.4-57.2
		c26.5,28.2,17,54.6,14.3,55.2c-4.1,0.9-2.2-20.4-14.3-30.1c0,0,3.5,14.5-0.7,45.7c-2,14.8,5.5,39.2,21.3,42.4
		c2,0.4,12.2-3.5,18.4-11.1c0,0,9.6-12.3,3.9-44c0,0,7.4,14.5,8.2,27.5C556.6,117,568.9,98.9,561.8,67.1z"/>
</g>
<g class="st0">
	<g class="st15">
		<path class="st16" d="M340.4,150.1c-49.9,0-99.8,0-149.8,0c-10.9,0-15.4-4.4-15.4-15.2c0-33.4,0-66.7,0-100.1
			c0-10.1,5.1-15.2,15.1-15.2c99.8,0,199.7,0,299.5,0c10.5,0,15.5,5,15.5,15.5c0,33.2,0,66.4,0,99.5c0,11-4.6,15.5-15.8,15.5
			C439.9,150.1,390.1,150.1,340.4,150.1z M340,145.8c49.7,0,99.5,0,149.2,0c9.6,0,11.8-2.2,11.8-12c0-32.6,0-65.2,0-97.9
			c0-9.5-2.5-12-11.9-12c-99.3,0-198.6,0-297.9,0c-8.9,0-11.9,2.8-11.9,11.6c0,33,0,66,0,99c0,8.8,2.6,11.2,11.5,11.2
			C240.5,145.8,290.3,145.8,340,145.8z"/>
	</g>
	<g class="st3">
		<path class="st17" d="M190.4,134.4l3.6-14.6l257.7,0l5.8,14.6L190.4,134.4z"/>
	</g>
	<g class="st3">
		<path class="st16" d="M394.7,62.5c-2.8,10.1-5.4,19.6-7.9,29.2c-0.8,2.8-2.4,6.2,2,7.4c4.1,1.2,6.2-1.3,7.2-5.1
			c2.4-8.9,8.3-31.3,8.3-31.3l24.5-0.1c0,0-5.6,22.5-8.3,31.6c-3.7,12.4-12.2,19.3-25,21c-7.3,1-14.5,1.4-21.8,0
			c-9.8-2-14.9-8.5-12.9-18.1c2.3-10.8,8.3-34.7,8.3-34.7L394.7,62.5z"/>
	</g>
	<g class="st3">
		<path class="st16" d="M431.8,62.5l22.2-0.1l5.8,11.1l9.5-11.1l24.5,0.1l-25.4,26.3l20.3,45.8h-24.2l-12.3-32.2l-11.6,11.8
			l-23.1,0.2c6.8-7.1,25.5-27.6,25.5-27.6L431.8,62.5z"/>
	</g>
	<g class="st3">
		<path class="st16" d="M233.5,63.4c6.2,0.2,10.8,0.1,10.8,0.1L240,80.3l-9.6,0c0,0-0.6,1.7-1.1,3.3c-2.8,8.9-5.2,18-7.5,27
			l-0.9,3.3H196c0,0,0.8-2.3,1.3-4c2.8-9.7,5.1-19.8,7.8-29.8l-8.5,0c1.2-4.7,4.1-16.7,4.1-16.7l8.9-0.1l0.4-4.4
			c0.1-1.1,2.7-9.2,2.9-10.3c4.9-12.7,20.2-16.6,35.1-13.5c0.8,0.2,2.8,0.9,3.2,1.1l-3.4,15.7c0,0-3.5-1-5.2-1
			C235,50.2,234,59.2,233.5,63.4z"/>
	</g>
	<g class="st3">
		<polygon class="st16" points="366.6,35.5 345.4,114.1 320.2,114.1 341.6,35.5 		"/>
	</g>
	<g class="st3">
		<path class="st16" d="M269.9,70c5.5-3.8,7-4.5,12.2-6.4c1.6-0.6,5.1-1.2,8.5-1.3l-4.3,17.9c-2.5,0.3-7.2,0.9-9.9,1.2
			c-6,0.1-8.3,5.1-9.9,11.1c-1.6,6-6,21.5-6,21.5h-25.2l13.5-50.5H272L269.9,70z"/>
	</g>
	<g class="st3">
		<path class="st16" d="M284.3,114c4.5-16.4,13.4-50.4,13.4-50.4l25.6,0.1l-13.7,50.4L284.3,114z"/>
	</g>
	<g class="st3">
		<path class="st16" d="M313,57.4c-6.8,0.1-10.6-3-10.6-8.8c-0.1-8,7-13.9,16.5-13.9c6.2,0,9.8,3.4,9.8,9.1
			C328.7,51.2,321.6,57.3,313,57.4z"/>
	</g>
	<g class="st3">
		<path class="st16" d="M492.1,150.5h-304c-7.3,0-13.3-6-13.3-13.3V32.9c0-7.3,6-13.3,13.3-13.3h304c7.3,0,13.3,6,13.3,13.3v104.4
			C505.4,144.6,499.4,150.5,492.1,150.5z M188.2,24.1c-4.8,0-8.8,3.9-8.8,8.8v104.4c0,4.8,3.9,8.8,8.8,8.8h304
			c4.8,0,8.8-3.9,8.8-8.8V32.9c0-4.8-3.9-8.8-8.8-8.8H188.2z"/>
	</g>
	<g class="st3">
		<path class="st18" d="M488.2,31.4c0.4-0.1,1-0.1,1.6-0.1c0.9,0,1.4,0.2,1.8,0.5c0.3,0.3,0.5,0.7,0.5,1.2c0,0.8-0.5,1.4-1.2,1.6v0
			c0.5,0.2,0.8,0.6,0.9,1.3c0.2,0.9,0.4,1.5,0.5,1.8h-0.9c-0.1-0.2-0.2-0.7-0.4-1.5c-0.2-0.9-0.5-1.2-1.3-1.2H489v2.8h-0.8V31.4z
			 M489,34.3h0.8c0.9,0,1.4-0.5,1.4-1.2c0-0.8-0.6-1.2-1.5-1.2c-0.4,0-0.7,0-0.8,0.1V34.3z"/>
	</g>
	<g class="st3">
		<path class="st19" d="M490.1,39.9c-3,0-5.5-2.5-5.5-5.5c0-3,2.5-5.5,5.5-5.5c3,0,5.5,2.5,5.5,5.5
			C495.6,37.4,493.2,39.9,490.1,39.9z M490.1,29.6c-2.6,0-4.7,2.1-4.7,4.7c0,2.6,2.1,4.7,4.7,4.7s4.7-2.1,4.7-4.7
			C494.9,31.8,492.8,29.6,490.1,29.6z"/>
	</g>
</g>
<g>
	<linearGradient id="SVGID_8_" gradientUnits="userSpaceOnUse" x1="91.9565" y1="88.4348" x2="559.4348" y2="88.4348">
		<stop  offset="0" style="stop-color:#718DCC"/>
		<stop  offset="1" style="stop-color:#253C86"/>
	</linearGradient>
	<path class="st20" d="M493.7,154.2h-336c-36.3,0-65.7-29.4-65.7-65.7v0c0-36.3,29.4-65.7,65.7-65.7h336c36.3,0,65.7,29.4,65.7,65.7
		v0C559.4,124.7,530,154.2,493.7,154.2z"/>
	<linearGradient id="SVGID_9_" gradientUnits="userSpaceOnUse" x1="130.9429" y1="88.4348" x2="180.4356" y2="88.4348">
		<stop  offset="0" style="stop-color:#59A534"/>
		<stop  offset="1" style="stop-color:#6AAE48"/>
	</linearGradient>
	<path class="st21" d="M179.5,55.6h-47.7c-0.5,0-0.9,0.4-0.9,0.9v63.8c0,0.5,0.4,0.9,0.9,0.9h18c0.5,0,0.9-0.4,0.9-0.9V96
		c0-0.5,0.4-0.9,0.9-0.9l23.1-0.2c0.5,0,0.9-0.4,0.9-0.9V81.3c0-0.5-0.4-0.9-0.9-0.9h-23.1c-0.5,0-0.9-0.4-0.9-0.9v-9.2
		c0-0.5,0.4-0.9,0.9-0.9l27.8,0.1c0.5,0,0.9-0.4,0.9-0.9l0.1-11.9C180.4,56,180,55.6,179.5,55.6z"/>
	<linearGradient id="SVGID_10_" gradientUnits="userSpaceOnUse" x1="185.0056" y1="88.4348" x2="243.1929" y2="88.4348">
		<stop  offset="0" style="stop-color:#6AAE48"/>
		<stop  offset="1" style="stop-color:#AAD29A"/>
	</linearGradient>
	<path class="st22" d="M185,57c0-0.5,0.4-0.9,0.9-0.9c0,0,42.4-0.2,42.4-0.2c6.6,0,11.7,5.5,13.8,11.3c3.9,10.4-3.3,20.1-12.3,24.8
		c-0.4,0.2-0.5,0.7-0.4,1.1l11.7,26.6c0.3,0.6-0.2,1.3-0.9,1.3h-19.1c-0.4,0-0.7-0.2-0.9-0.6l-12.5-33.6c-0.2-0.6,0.3-1.3,0.9-1.2
		c4,0.3,14.6-0.9,14.6-8.4c0-4.4-1.7-7.8-7.8-7.8c-2.8,0-6.5,0-10.7,0c-0.5,0-0.9,0.4-0.9,0.9l0.3,49.8c0,0.5-0.4,1-0.9,1H186
		c-0.5,0-0.9-0.4-0.9-0.9L185,57z"/>
	<linearGradient id="SVGID_11_" gradientUnits="userSpaceOnUse" x1="246.3058" y1="88.4348" x2="267.2339" y2="88.4348">
		<stop  offset="0" style="stop-color:#AAD29A"/>
		<stop  offset="1" style="stop-color:#BBDBAE"/>
	</linearGradient>
	<path class="st23" d="M265.3,121h-17c-1.1,0-2-0.9-2-2l0-61.2c0-1.1,0.9-2,2-2h17c1.1,0,2,0.9,2,2l0,61.2
		C267.2,120.1,266.4,121,265.3,121z"/>
	<linearGradient id="SVGID_12_" gradientUnits="userSpaceOnUse" x1="329.0776" y1="88.4252" x2="407.6463" y2="88.4252">
		<stop  offset="0" style="stop-color:#F6FAF4"/>
		<stop  offset="1" style="stop-color:#FAD2BD"/>
	</linearGradient>
	<path class="st24" d="M349.3,121l-19.4,0c-0.6,0-1-0.9-0.8-1.5l27-63c0.1-0.4,0.5-0.6,0.9-0.6h22.7c0.4,0,0.7,0.2,0.8,0.5l27,63.1
		c0.3,0.6-0.1,1.5-0.7,1.5h-19.6c-0.4,0-0.7-0.2-0.9-0.6l-17.1-45.6c-0.3-0.8-1.4-0.7-1.7,0.1l-17.3,45.5
		C350,120.7,349.7,121,349.3,121z"/>
	<linearGradient id="SVGID_13_" gradientUnits="userSpaceOnUse" x1="271.5834" y1="88.4241" x2="350.1522" y2="88.4241">
		<stop  offset="0" style="stop-color:#BBDBAE"/>
		<stop  offset="1" style="stop-color:#F6FAF4"/>
	</linearGradient>
	<path class="st25" d="M291.8,55.9l-19.4,0c-0.6,0-1,0.9-0.8,1.5l27,63c0.1,0.4,0.5,0.6,0.9,0.6h22.7c0.4,0,0.7-0.2,0.8-0.5l27-63.1
		c0.3-0.6-0.1-1.5-0.7-1.5h-19.6c-0.4,0-0.7,0.2-0.9,0.6l-17.1,46.1c-0.3,0.8-1.4,0.7-1.7-0.1l-17.3-46
		C292.5,56.1,292.2,55.9,291.8,55.9z"/>
	<linearGradient id="SVGID_14_" gradientUnits="userSpaceOnUse" x1="410.1624" y1="88.4253" x2="460.0849" y2="88.4253">
		<stop  offset="0" style="stop-color:#FAD2BD"/>
		<stop  offset="0.7159" style="stop-color:#F5A57C"/>
	</linearGradient>
	<path class="st26" d="M430.7,56.8l0,50c0,0.5,0.4,0.9,0.9,0.9h27.5c0.5,0,0.9,0.4,0.9,0.9l0,11.5c0,0.5-0.4,0.9-0.9,0.9h-48.1
		c-0.5,0-0.9-0.4-0.9-0.9l0-63.3c0-0.5,0.4-0.9,0.9-0.9h18.8C430.3,55.9,430.7,56.3,430.7,56.8z"/>
	<linearGradient id="SVGID_15_" gradientUnits="userSpaceOnUse" x1="463.5866" y1="88.4253" x2="516.6215" y2="88.4253">
		<stop  offset="0" style="stop-color:#F18E62"/>
		<stop  offset="0.768" style="stop-color:#E9500E"/>
	</linearGradient>
	<path class="st27" d="M515.3,121h-50.3c-0.5,0-0.9-0.4-0.9-0.9l-0.5-63.3c0-0.5,0.4-0.9,0.9-0.9h51.2c0.5,0,0.9,0.4,0.9,0.9v12.6
		c0,0.5-0.4,0.9-0.9,0.9l-30.6-0.1c-0.5,0-0.9,0.4-0.9,0.9v9c0,0.5,0.4,0.9,0.9,0.9h25.2c0.5,0,0.9,0.4,0.9,0.9v12.6
		c0,0.5-0.4,0.9-0.9,0.9h-25c-0.5,0-0.9,0.4-0.9,0.9v10.1c0,0.5,0.4,0.9,0.9,0.9H515c0.5,0,0.9,0.4,0.9,0.9l0.3,11.9
		C516.2,120.6,515.8,121,515.3,121z"/>
</g>
</svg>
